<svg xmlns="http://www.w3.org/2000/svg" width="600" height="600" viewBox="0 0 600 600"><defs><radialGradient id="fg" cx="50%" cy="40%" r="70%"><stop offset="0" stop-color="#0A1A4A"/><stop offset="1" stop-color="#02030A"/></radialGradient><radialGradient id="orb"><stop offset="0" stop-color="#E6F7FF"/><stop offset=".5" stop-color="#66CCFF"/><stop offset="1" stop-color="#B388FF" stop-opacity=".2"/></radialGradient></defs><rect width="600" height="600" fill="url(#fg)"/><line x1="300" y1="330" x2="-600" y2="600" stroke="#66CCFF" stroke-opacity=".35"/><line x1="300" y1="330" x2="-510" y2="600" stroke="#66CCFF" stroke-opacity=".35"/><line x1="300" y1="330" x2="-420" y2="600" stroke="#66CCFF" stroke-opacity=".35"/><line x1="300" y1="330" x2="-330" y2="600" stroke="#66CCFF" stroke-opacity=".35"/><line x1="300" y1="330" x2="-240" y2="600" stroke="#66CCFF" stroke-opacity=".35"/><line x1="300" y1="330" x2="-150" y2="600" stroke="#66CCFF" stroke-opacity=".35"/><line x1="300" y1="330" x2="-60" y2="600" stroke="#66CCFF" stroke-opacity=".35"/><line x1="300" y1="330" x2="30" y2="600" stroke="#66CCFF" stroke-opacity=".35"/><line x1="300" y1="330" x2="120" y2="600" stroke="#66CCFF" stroke-opacity=".35"/><line x1="300" y1="330" x2="210" y2="600" stroke="#66CCFF" stroke-opacity=".35"/><line x1="300" y1="330" x2="300" y2="600" stroke="#66CCFF" stroke-opacity=".35"/><line x1="300" y1="330" x2="390" y2="600" stroke="#66CCFF" stroke-opacity=".35"/><line x1="300" y1="330" x2="480" y2="600" stroke="#66CCFF" stroke-opacity=".35"/><line x1="300" y1="330" x2="570" y2="600" stroke="#66CCFF" stroke-opacity=".35"/><line x1="300" y1="330" x2="660" y2="600" stroke="#66CCFF" stroke-opacity=".35"/><line x1="300" y1="330" x2="750" y2="600" stroke="#66CCFF" stroke-opacity=".35"/><line x1="300" y1="330" x2="840" y2="600" stroke="#66CCFF" stroke-opacity=".35"/><line x1="300" y1="330" x2="930" y2="600" stroke="#66CCFF" stroke-opacity=".35"/><line x1="300" y1="330" x2="1020" y2="600" stroke="#66CCFF" stroke-opacity=".35"/><line x1="300" y1="330" x2="1110" y2="600" stroke="#66CCFF" stroke-opacity=".35"/><line x1="300" y1="330" x2="1200" y2="600" stroke="#66CCFF" stroke-opacity=".35"/><line x1="0" y1="345" x2="600" y2="345" stroke="#66CCFF" stroke-opacity=".3"/><line x1="0" y1="370" x2="600" y2="370" stroke="#66CCFF" stroke-opacity=".3"/><line x1="0" y1="405" x2="600" y2="405" stroke="#66CCFF" stroke-opacity=".3"/><line x1="0" y1="455" x2="600" y2="455" stroke="#66CCFF" stroke-opacity=".3"/><line x1="0" y1="520" x2="600" y2="520" stroke="#66CCFF" stroke-opacity=".3"/><line x1="0" y1="600" x2="600" y2="600" stroke="#66CCFF" stroke-opacity=".3"/><circle cx="300" cy="230" r="150" fill="none" stroke="#B388FF" stroke-opacity=".5" stroke-width="2"/><circle cx="300" cy="230" r="110" fill="none" stroke="#66CCFF" stroke-width="3" stroke-dasharray="40 16"/><circle cx="300" cy="230" r="62" fill="url(#orb)"/></svg>